<?xml version="1.0" encoding="UTF-8" standalone="no"?>
<!-- Created with Inkscape (http://www.inkscape.org/) -->

<svg
   xmlns:dc="http://purl.org/dc/elements/1.1/"
   xmlns:cc="http://creativecommons.org/ns#"
   xmlns:rdf="http://www.w3.org/1999/02/22-rdf-syntax-ns#"
   xmlns:svg="http://www.w3.org/2000/svg"
   xmlns="http://www.w3.org/2000/svg"
   xmlns:xlink="http://www.w3.org/1999/xlink"
   xmlns:sodipodi="http://sodipodi.sourceforge.net/DTD/sodipodi-0.dtd"
   xmlns:inkscape="http://www.inkscape.org/namespaces/inkscape"
   width="90mm"
   height="50mm"
   viewBox="0 0 90 50"
   id="svg3544"
   version="1.1"
   inkscape:version="0.91 r13725"
   sodipodi:docname="inebriated.svg"
   inkscape:export-filename="/home/eeeeeta/markov-c/inebriated.png"
   inkscape:export-xdpi="300"
   inkscape:export-ydpi="300">
  <defs
     id="defs3">
    <linearGradient
       inkscape:collect="always"
       id="linearGradient5732">
      <stop
         style="stop-color:#ff7f2a;stop-opacity:1;"
         offset="0"
         id="stop5720" />
      <stop
         id="stop5734"
         offset="0.60606283"
         style="stop-color:#ff7f2a;stop-opacity:1" />
      <stop
         style="stop-color:#ff7f2a;stop-opacity:0;"
         offset="1"
         id="stop5722" />
    </linearGradient>
    <linearGradient
       inkscape:collect="always"
       xlink:href="#linearGradient5732"
       id="linearGradient5724"
       x1="29.247711"
       y1="12.265692"
       x2="9.2207975"
       y2="44.01569"
       gradientUnits="userSpaceOnUse"
       spreadMethod="pad"
       gradientTransform="translate(-1.0125285,-3.9376104)" />
  </defs>
  <sodipodi:namedview
     id="base"
     pagecolor="#ffffff"
     bordercolor="#666666"
     borderopacity="1.0"
     inkscape:pageopacity="0.0"
     inkscape:pageshadow="2"
     inkscape:zoom="2.5085714"
     inkscape:cx="171.83387"
     inkscape:cy="71.25"
     inkscape:document-units="mm"
     inkscape:current-layer="layer1"
     showgrid="false"
     inkscape:window-width="1042"
     inkscape:window-height="1047"
     inkscape:window-x="6"
     inkscape:window-y="25"
     inkscape:window-maximized="0" />
  <metadata
     id="metadata3548">
    <rdf:RDF>
      <cc:Work
         rdf:about="">
        <dc:format>image/svg+xml</dc:format>
        <dc:type
           rdf:resource="http://purl.org/dc/dcmitype/StillImage" />
        <dc:title></dc:title>
      </cc:Work>
    </rdf:RDF>
  </metadata>
  <g
     inkscape:label="Layer 1"
     inkscape:groupmode="layer"
     id="layer1">
    <path
       style="fill:url(#linearGradient5724);fill-opacity:1;fill-rule:nonzero"
       d="m 0.06036724,49.459738 c -1.0261842,-0.91988 -1.35574964,-1.533564 -1.17729164,-2.19221 0.088962,-0.328343 3.0196538,-5.568646 6.5126401,-11.64512 7.0033873,-12.183237 6.3900933,-11.311216 8.8245583,-12.547367 0.774572,-0.393305 1.697565,-1.024191 2.051091,-1.401971 0.353527,-0.377782 2.105533,-2.840093 3.893358,-5.4718 3.075714,-4.527502 3.244682,-4.812369 3.140786,-5.295144 -0.103853,-0.482588 -0.06814,-0.544082 0.659233,-1.1354075 0.624411,-0.507406 0.756493,-0.699582 0.70163,-1.020849 -0.0547,-0.320314 0.0073,-0.415667 0.325151,-0.500153 0.495705,-0.131755 3.080471,1.094783 4.04418,1.9190695 0.671126,0.574034 0.691137,0.63865 0.381993,1.233254 -0.179345,0.345165 -0.44211,0.963113 -0.583719,1.373334 -0.169135,0.489962 -0.419049,0.846219 -0.728457,1.038372 -0.389357,0.241842 -0.936591,1.255555 -3.157928,5.849915 -2.850683,5.895992 -2.801192,5.744754 -2.688637,8.217011 0.123641,2.715798 0.574855,1.753539 -6.532769,13.931912 C 8.568518,54.076699 8.77501,53.787422 7.4020421,53.474735 6.4171952,53.250445 0.95937304,50.265677 0.06016944,49.459631 Z"
       id="path3651"
       inkscape:connector-curvature="0" />
    <text
       xml:space="preserve"
       style="font-style:normal;font-weight:normal;font-size:11.28888798px;line-height:330.99999428%;font-family:sans-serif;letter-spacing:0px;word-spacing:0px;fill:#000000;fill-opacity:1;stroke:none;stroke-width:1px;stroke-linecap:butt;stroke-linejoin:miter;stroke-opacity:1"
       x="11.452286"
       y="26.777205"
       id="text3551"
       sodipodi:linespacing="330.99999%"><tspan
         sodipodi:role="line"
         id="tspan3553"
         x="11.452286"
         y="26.777205"
         style="font-style:normal;font-variant:normal;font-weight:normal;font-stretch:normal;font-size:16.93333244px;line-height:330.99999428%;font-family:'Lobster 1.4';-inkscape-font-specification:'Lobster 1.4, '">inebriated.</tspan></text>
    <ellipse
       style="fill:none;stroke:#552200;stroke-width:0.20490101"
       id="path4457"
       cx="30.221994"
       cy="5.8650517"
       rx="1.0245051"
       ry="1.024505" />
    <ellipse
       style="fill:none;stroke:#552200;stroke-width:0.20490101"
       id="path4457-4"
       cx="27.489986"
       cy="7.060308"
       rx="1.0245051"
       ry="1.024505" />
    <ellipse
       style="fill:none;stroke:#552200;stroke-width:0.20490101"
       id="path4457-1"
       cx="28.427505"
       cy="3.3037894"
       rx="1.0245051"
       ry="1.024505" />
    <text
       xml:space="preserve"
       style="font-style:normal;font-weight:normal;font-size:11.28888798px;line-height:125%;font-family:sans-serif;letter-spacing:0px;word-spacing:0px;fill:#000000;fill-opacity:1;stroke:none;stroke-width:1px;stroke-linecap:butt;stroke-linejoin:miter;stroke-opacity:1"
       x="61.148148"
       y="38.475922"
       id="text3349"
       sodipodi:linespacing="125%"><tspan
         sodipodi:role="line"
         id="tspan3351"
         x="61.148148"
         y="38.475922" /></text>
    <g
       id="g3786"
       transform="matrix(0.60079322,0,0,0.60079322,45.217273,8.6031553)">
      <path
         style="fill:#5d95cc"
         d="m 50.056959,48.336941 c -0.456707,-0.209222 -5.601325,-3.183537 -5.919594,-3.42236 -0.467173,-0.350558 -0.4783,-0.454359 -0.4783,-4.462112 0,-4.015754 -0.006,-3.964899 0.511414,-4.33061 0.124743,-0.08817 1.555598,-0.929963 3.179679,-1.870656 2.869615,-1.662126 2.965594,-1.710333 3.404007,-1.709716 0.437476,6.16e-4 0.540531,0.05237 3.404008,1.709395 1.624081,0.939818 3.072873,1.798781 3.219539,1.908807 0.522784,0.392181 0.512566,0.305816 0.512566,4.332353 0,4.03043 -3.28e-4,4.033465 -0.503948,4.409754 -0.333903,0.249491 -5.473293,3.224449 -5.934958,3.435476 -0.418908,0.191483 -0.975995,0.19135 -1.394413,-3.28e-4 z m 2.132631,-3.386854 c 0.883453,-0.292005 1.634129,-0.805817 2.182636,-1.493941 0.175507,-0.220181 0.319105,-0.461799 0.319105,-0.536928 0,-0.08805 -0.323341,-0.321005 -0.909808,-0.655475 l -0.909807,-0.518877 -0.382075,0.370625 c -0.586521,0.568945 -1.002094,0.748077 -1.735476,0.748077 -0.480691,0 -0.695876,-0.04131 -0.984291,-0.188943 -0.875846,-0.448335 -1.313923,-1.185286 -1.310587,-2.204727 0.003,-0.901868 0.448174,-1.62524 1.262191,-2.050731 0.343948,-0.179784 0.52589,-0.218233 1.032687,-0.218233 0.710897,0 1.231921,0.220395 1.718095,0.726762 0.155468,0.161925 0.313603,0.294409 0.351412,0.294409 0.150401,0 1.949683,-1.086387 1.949683,-1.177198 0,-0.146365 -0.596452,-0.838521 -1.041768,-1.208926 -0.494552,-0.411356 -1.221526,-0.770637 -1.911049,-0.944465 -0.705005,-0.177731 -1.891269,-0.118194 -2.602095,0.130596 -2.101833,0.735643 -3.485923,2.9906 -3.14205,5.119024 0.139972,0.866368 0.35451,1.37913 0.855578,2.044893 0.641121,0.85185 1.260391,1.333856 2.176604,1.69415 0.907658,0.356929 2.12881,0.384637 3.081015,0.06991 z m 2.733065,-3.947156 c 0.02034,-0.177143 0.07931,-0.239379 0.261335,-0.275783 0.400554,-0.08011 0.390954,-0.367877 -0.01559,-0.467311 -0.162372,-0.03971 -0.226944,-0.112979 -0.246073,-0.279208 -0.02058,-0.178792 -0.06831,-0.225366 -0.230996,-0.225366 -0.163438,0 -0.210392,0.04643 -0.231324,0.228768 -0.02049,0.178469 -0.0791,0.239337 -0.266579,0.276832 -0.345103,0.06902 -0.341055,0.397025 0.0058,0.466387 0.189941,0.03799 0.246073,0.09334 0.246073,0.242655 0,0.243788 0.07179,0.316096 0.28371,0.28576 0.11474,-0.01642 0.175687,-0.09595 0.193687,-0.252734 z m 1.950812,0.126238 c 0.08814,-0.28525 0.174568,-0.386707 0.368379,-0.43246 0.298851,-0.07055 0.258114,-0.341089 -0.06392,-0.424538 -0.202905,-0.05258 -0.266998,-0.117835 -0.287085,-0.292299 -0.0205,-0.178004 -0.06841,-0.224609 -0.230923,-0.224609 -0.163438,0 -0.210392,0.04643 -0.231324,0.228768 -0.02049,0.178469 -0.0791,0.239337 -0.266579,0.276832 -0.345104,0.06902 -0.341055,0.397025 0.0058,0.466387 0.189941,0.03799 0.246073,0.09334 0.246073,0.242655 0,0.106393 0.02461,0.218048 0.05468,0.248124 0.107684,0.107684 0.361414,0.05201 0.404943,-0.08886 z"
         id="path3778"
         inkscape:connector-curvature="0" />
      <path
         style="fill:#1261a1"
         d="m 50.344044,48.435466 c -0.06767,-0.02818 -0.141492,-0.0757 -0.164049,-0.105597 -0.02256,-0.0299 -1.347759,-0.806111 -2.944895,-1.724922 -1.597136,-0.918809 -2.996705,-1.750404 -3.110153,-1.847988 -0.124043,-0.106698 -0.187063,-0.227473 -0.158091,-0.302974 0.0265,-0.06905 0.612669,-0.449061 1.302603,-0.844463 l 1.254424,-0.718914 0.28655,0.359898 c 1.067374,1.340592 2.421241,2.041395 3.943732,2.041395 1.254849,0 2.469561,-0.505567 3.359569,-1.398263 0.576385,-0.578127 0.789876,-0.900493 0.718881,-1.085502 -0.06475,-0.168729 -1.925926,-1.229303 -2.036909,-1.160712 -0.05155,0.03186 -0.227472,0.206298 -0.390935,0.387637 -0.837044,0.928586 -2.318358,0.964258 -3.229573,0.07777 -0.169175,-0.164584 -0.307591,-0.363349 -0.307591,-0.441698 0,-0.09759 0.355189,-0.342244 1.127834,-0.776847 0.620308,-0.348916 1.477334,-0.830984 1.904502,-1.071263 0.427168,-0.240279 0.824971,-0.436871 0.884008,-0.436871 0.144151,0 1.8131,-0.964487 2.071428,-1.197081 0.218415,-0.196656 2.587251,-1.591744 2.702756,-1.591744 0.03769,0 0.09092,0.05839 0.118306,0.129745 0.02738,0.07136 0.04979,1.800714 0.04979,3.843011 l 0,3.713266 -0.184554,0.272082 c -0.140616,0.207307 -0.887569,0.677422 -3.137429,1.974631 -1.624081,0.936401 -3.003742,1.748068 -3.065913,1.803704 -0.125614,0.112411 -0.802362,0.18163 -0.994289,0.101699 z m 4.628513,-7.127601 c 0.07089,-0.07089 0.128895,-0.197629 0.128895,-0.281637 0,-0.105652 0.06954,-0.160743 0.225567,-0.178696 0.204153,-0.02349 0.225567,-0.0571 0.225567,-0.354051 0,-0.293468 -0.02282,-0.330741 -0.216224,-0.35315 -0.163628,-0.01896 -0.227651,-0.0822 -0.263208,-0.259982 -0.0276,-0.137996 -0.116064,-0.256853 -0.214404,-0.288065 -0.272029,-0.08634 -0.498072,0.03222 -0.549242,0.288065 -0.03556,0.177785 -0.09958,0.241023 -0.263209,0.259982 -0.193402,0.02241 -0.216223,0.05968 -0.216223,0.35315 0,0.296949 0.02141,0.330561 0.225567,0.354051 0.156025,0.01795 0.225566,0.07304 0.225566,0.178696 0,0.196072 0.214247,0.410532 0.410122,0.410532 0.08378,0 0.210334,-0.058 0.281226,-0.128895 z m 1.968583,0 c 0.07089,-0.07089 0.128895,-0.197629 0.128895,-0.281637 0,-0.105652 0.06954,-0.160743 0.225567,-0.178696 0.204153,-0.02349 0.225567,-0.0571 0.225567,-0.354051 0,-0.293468 -0.02282,-0.330741 -0.216224,-0.35315 -0.163628,-0.01896 -0.227652,-0.0822 -0.263208,-0.259982 -0.08546,-0.427313 -0.656984,-0.429792 -0.750668,-0.0033 -0.03957,0.180179 -0.105229,0.243563 -0.272279,0.262861 -0.197899,0.02286 -0.220131,0.05857 -0.220131,0.353527 0,0.294098 0.02257,0.33071 0.217855,0.353307 0.157809,0.01826 0.233077,0.08586 0.273082,0.245251 0.08914,0.355157 0.40694,0.46043 0.651544,0.215826 z"
         id="path3776"
         inkscape:connector-curvature="0" />
      <path
         style="fill:#044e87"
         d="m 50.385056,48.408824 c -0.09023,-0.03877 -0.128138,-0.07309 -0.08425,-0.07626 0.04389,-0.0032 -1.302975,-0.80217 -2.993033,-1.775555 -3.142823,-1.810099 -3.2796,-1.89379 -3.2796,-2.006723 0,-0.07213 2.409768,-1.473041 2.533845,-1.473041 0.04265,0 0.153666,0.123154 0.246694,0.273676 0.234052,0.378705 0.953968,1.043786 1.433904,1.324687 1.067487,0.624787 2.493676,0.857918 3.577864,0.584852 1.150713,-0.289819 2.281261,-1.039192 2.87943,-1.908601 0.134956,-0.196151 0.281503,-0.356639 0.32566,-0.356639 0.04416,0 0.613117,0.304516 1.264354,0.676701 1.162295,0.664256 1.332528,0.825603 1.086504,1.029784 -0.05705,0.04735 -1.485561,0.882362 -3.174469,1.855589 -1.688908,0.973228 -3.035618,1.772099 -2.992689,1.77527 0.160248,0.01184 -0.258151,0.146753 -0.455106,0.146753 -0.112783,0 -0.278882,-0.03172 -0.369109,-0.07049 z m -0.497508,-5.896759 c -0.37932,-0.172287 -0.93838,-0.635419 -0.936985,-0.776211 0.0011,-0.109239 1.738558,-1.119337 1.925378,-1.119337 0.149479,0 1.552264,0.786043 1.682208,0.942616 0.131781,0.158788 -0.314388,0.635764 -0.839451,0.897415 -0.52847,0.263347 -1.320692,0.287366 -1.83115,0.05552 z"
         id="path3774"
         inkscape:connector-curvature="0" />
    </g>
    <text
       xml:space="preserve"
       style="font-style:normal;font-weight:normal;font-size:11.28888798px;line-height:125%;font-family:sans-serif;letter-spacing:0px;word-spacing:0px;fill:#000000;fill-opacity:1;stroke:none;stroke-width:1px;stroke-linecap:butt;stroke-linejoin:miter;stroke-opacity:1"
       x="53.326496"
       y="34.249554"
       id="text3791"
       sodipodi:linespacing="125%"><tspan
         sodipodi:role="line"
         id="tspan3793"
         x="53.326496"
         y="34.249554"
         style="font-style:italic;font-variant:normal;font-weight:300;font-stretch:normal;font-size:3.52777767px;font-family:Raleway;-inkscape-font-specification:'Raleway Light Italic'">c++ edition!</tspan></text>
  </g>
</svg>
